<svg width="20" height="20" viewBox="0 0 20 20" fill="none" xmlns="http://www.w3.org/2000/svg">
<path d="M8.75003 12.7083C8.58924 12.696 8.43967 12.6213 8.33336 12.5L5.83336 10C5.77766 9.88338 5.75948 9.75235 5.78134 9.62496C5.8032 9.49758 5.86401 9.3801 5.9554 9.28871C6.04679 9.19732 6.16427 9.13651 6.29165 9.11465C6.41904 9.0928 6.55006 9.11097 6.66669 9.16667L8.72503 11.225L15.8334 4.16667C15.95 4.11097 16.081 4.0928 16.2084 4.11465C16.3358 4.13651 16.4533 4.19732 16.5447 4.28871C16.636 4.3801 16.6969 4.49758 16.7187 4.62496C16.7406 4.75235 16.7224 4.88338 16.6667 5.00001L9.16669 12.5C9.06038 12.6213 8.91081 12.696 8.75003 12.7083Z" fill="white"/>
<path d="M10 17.5C8.65958 17.4979 7.34421 17.1365 6.1908 16.4535C5.03738 15.7706 4.08809 14.791 3.4417 13.6167C2.95035 12.7417 2.64668 11.7739 2.55003 10.775C2.39751 9.31008 2.6797 7.83266 3.3614 6.52707C4.0431 5.22147 5.09412 4.14549 6.38336 3.43334C7.25838 2.942 8.22616 2.63832 9.22503 2.54168C10.2202 2.43463 11.2266 2.53103 12.1834 2.82501C12.2687 2.84207 12.3496 2.87678 12.4208 2.92692C12.492 2.97706 12.5519 3.04152 12.5967 3.11616C12.6416 3.19081 12.6703 3.274 12.6811 3.36039C12.6919 3.44679 12.6845 3.53449 12.6594 3.61787C12.6344 3.70126 12.5921 3.77848 12.5355 3.84459C12.4788 3.91071 12.409 3.96425 12.3304 4.0018C12.2519 4.03935 12.1663 4.06006 12.0793 4.06263C11.9923 4.06519 11.9057 4.04954 11.825 4.01668C11.0155 3.77328 10.1656 3.69395 9.32503 3.78334C8.49419 3.86842 7.68916 4.1207 6.95836 4.52501C6.25431 4.91343 5.63182 5.43406 5.12503 6.05834C4.60325 6.69431 4.21361 7.428 3.97894 8.21644C3.74426 9.00488 3.66928 9.83223 3.75836 10.65C3.84344 11.4808 4.09572 12.2859 4.50003 13.0167C4.88845 13.7207 5.40908 14.3432 6.03336 14.85C6.66933 15.3718 7.40302 15.7614 8.19146 15.9961C8.9799 16.2308 9.80724 16.3058 10.625 16.2167C11.4559 16.1316 12.2609 15.8793 12.9917 15.475C13.6958 15.0866 14.3182 14.566 14.825 13.9417C15.3468 13.3057 15.7365 12.572 15.9711 11.7836C16.2058 10.9951 16.2808 10.1678 16.1917 9.35001C16.1835 9.26411 16.1923 9.17742 16.2176 9.09491C16.2429 9.01241 16.2842 8.93569 16.3391 8.86914C16.394 8.80259 16.4616 8.74752 16.5378 8.70706C16.614 8.6666 16.6975 8.64155 16.7834 8.63334C16.8693 8.62514 16.956 8.63393 17.0385 8.65922C17.121 8.68451 17.1977 8.72581 17.2642 8.78075C17.3308 8.83569 17.3859 8.9032 17.4263 8.97943C17.4668 9.05566 17.4918 9.1391 17.5 9.22501C17.6518 10.6908 17.3683 12.1688 16.6851 13.4745C16.0019 14.7802 14.9491 15.8557 13.6584 16.5667C12.774 17.0781 11.7913 17.3962 10.775 17.5C10.5167 17.5 10.25 17.5 10 17.5Z" fill="white"/>
</svg>
