<svg width="20" height="20" viewBox="0 0 20 20" fill="none" xmlns="http://www.w3.org/2000/svg">
<g opacity="0.5">
<path d="M10.8833 10L14.5667 6.31666C14.6281 6.25944 14.6773 6.19044 14.7115 6.11378C14.7456 6.03711 14.764 5.95435 14.7655 5.87043C14.767 5.78651 14.7515 5.70315 14.7201 5.62533C14.6887 5.54751 14.6419 5.47681 14.5825 5.41746C14.5232 5.35812 14.4525 5.31133 14.3747 5.27989C14.2968 5.24846 14.2135 5.23302 14.1296 5.2345C14.0456 5.23598 13.9629 5.25435 13.8862 5.28851C13.8096 5.32267 13.7406 5.37192 13.6833 5.43333L10 9.11666L6.31667 5.43333C6.19819 5.32293 6.04148 5.26283 5.87956 5.26568C5.71765 5.26854 5.56316 5.33413 5.44865 5.44864C5.33414 5.56316 5.26854 5.71764 5.26569 5.87956C5.26283 6.04148 5.32293 6.19818 5.43333 6.31666L9.11667 10L5.43333 13.6833C5.31629 13.8005 5.25055 13.9594 5.25055 14.125C5.25055 14.2906 5.31629 14.4495 5.43333 14.5667C5.55052 14.6837 5.70937 14.7494 5.875 14.7494C6.04062 14.7494 6.19948 14.6837 6.31667 14.5667L10 10.8833L13.6833 14.5667C13.8005 14.6837 13.9594 14.7494 14.125 14.7494C14.2906 14.7494 14.4495 14.6837 14.5667 14.5667C14.6837 14.4495 14.7494 14.2906 14.7494 14.125C14.7494 13.9594 14.6837 13.8005 14.5667 13.6833L10.8833 10Z" fill="white"/>
</g>
</svg>
