<svg width="20" height="20" viewBox="0 0 20 20" fill="none" xmlns="http://www.w3.org/2000/svg">
<path d="M10 17.5C8.51664 17.5 7.0666 17.0601 5.83323 16.236C4.59986 15.4119 3.63856 14.2406 3.07091 12.8701C2.50325 11.4997 2.35472 9.99168 2.64411 8.53683C2.9335 7.08197 3.64781 5.7456 4.6967 4.6967C5.7456 3.64781 7.08197 2.9335 8.53683 2.64411C9.99168 2.35472 11.4997 2.50325 12.8701 3.07091C14.2406 3.63856 15.4119 4.59986 16.236 5.83323C17.0601 7.0666 17.5 8.51664 17.5 10C17.5 11.9891 16.7098 13.8968 15.3033 15.3033C13.8968 16.7098 11.9891 17.5 10 17.5ZM10 3.75C8.76387 3.75 7.5555 4.11656 6.52769 4.80332C5.49988 5.49008 4.6988 6.46619 4.22576 7.60823C3.75271 8.75027 3.62894 10.0069 3.8701 11.2193C4.11125 12.4317 4.70651 13.5453 5.58059 14.4194C6.45466 15.2935 7.56831 15.8888 8.78069 16.1299C9.99307 16.3711 11.2497 16.2473 12.3918 15.7743C13.5338 15.3012 14.5099 14.5001 15.1967 13.4723C15.8834 12.4445 16.25 11.2361 16.25 10C16.25 8.3424 15.5915 6.75269 14.4194 5.58059C13.2473 4.40848 11.6576 3.75 10 3.75Z" fill="white"/>
<path d="M10 10.8334C9.83491 10.8312 9.67719 10.7647 9.56045 10.6479C9.4437 10.5312 9.37716 10.3734 9.375 10.2084V7.29169C9.375 7.12593 9.44085 6.96696 9.55806 6.84975C9.67527 6.73254 9.83424 6.66669 10 6.66669C10.1658 6.66669 10.3247 6.73254 10.4419 6.84975C10.5592 6.96696 10.625 7.12593 10.625 7.29169V10.2084C10.6228 10.3734 10.5563 10.5312 10.4396 10.6479C10.3228 10.7647 10.1651 10.8312 10 10.8334Z" fill="white"/>
<path d="M10 13.3334C9.83491 13.3312 9.67719 13.2647 9.56045 13.1479C9.4437 13.0312 9.37716 12.8734 9.375 12.7084V12.2917C9.375 12.1259 9.44085 11.967 9.55806 11.8497C9.67527 11.7325 9.83424 11.6667 10 11.6667C10.1658 11.6667 10.3247 11.7325 10.4419 11.8497C10.5592 11.967 10.625 12.1259 10.625 12.2917V12.7084C10.6228 12.8734 10.5563 13.0312 10.4396 13.1479C10.3228 13.2647 10.1651 13.3312 10 13.3334Z" fill="white"/>
</svg>
