<svg width="20" height="20" viewBox="0 0 20 20" fill="none" xmlns="http://www.w3.org/2000/svg">
    <path
        d="M14.3333 17.2917C14.2313 17.2915 14.131 17.2657 14.0416 17.2167L9.99997 15.0917L5.9583 17.2167C5.8556 17.2718 5.73953 17.2971 5.62319 17.2898C5.50686 17.2824 5.3949 17.2427 5.29997 17.175C5.20519 17.1055 5.13161 17.0111 5.08746 16.9021C5.04331 16.7932 5.03033 16.6742 5.04997 16.5583L5.8333 12.0583L2.54997 8.875C2.46768 8.79264 2.41004 8.68892 2.38353 8.57555C2.35703 8.46217 2.36272 8.34365 2.39997 8.23334C2.43486 8.12262 2.50029 8.02399 2.58874 7.94881C2.6772 7.87362 2.78507 7.82493 2.89997 7.80834L7.41664 7.15L9.44164 3.05834C9.49927 2.96165 9.58103 2.88158 9.6789 2.82598C9.77677 2.77038 9.88741 2.74115 9.99997 2.74115C10.1125 2.74115 10.2232 2.77038 10.321 2.82598C10.4189 2.88158 10.5007 2.96165 10.5583 3.05834L12.5833 7.15L17.1 7.80834C17.2149 7.82493 17.3227 7.87362 17.4112 7.94881C17.4996 8.02399 17.5651 8.12262 17.6 8.23334C17.6372 8.34365 17.6429 8.46217 17.6164 8.57555C17.5899 8.68892 17.5323 8.79264 17.45 8.875L14.1666 12.0583L14.9416 16.5583C14.9613 16.6742 14.9483 16.7932 14.9041 16.9021C14.86 17.0111 14.7864 17.1055 14.6916 17.175C14.5861 17.248 14.4616 17.2885 14.3333 17.2917ZM9.99997 13.7667C10.1008 13.7679 10.2003 13.7906 10.2916 13.8333L13.5 15.5L12.8916 11.925C12.8751 11.8247 12.8824 11.722 12.9128 11.625C12.9432 11.5281 12.9959 11.4396 13.0666 11.3667L15.6666 8.86667L12.075 8.33334C11.9756 8.31753 11.8815 8.2783 11.8004 8.21889C11.7192 8.15947 11.6534 8.08158 11.6083 7.99167L9.99997 4.74167L8.39164 8C8.34657 8.08992 8.28073 8.16781 8.19958 8.22722C8.11843 8.28663 8.0243 8.32587 7.92497 8.34167L4.3333 8.86667L6.9333 11.3667C7.00409 11.4396 7.05679 11.5281 7.08718 11.625C7.11757 11.722 7.12481 11.8247 7.1083 11.925L6.49997 15.525L9.7083 13.8583C9.79769 13.8069 9.89723 13.7756 9.99997 13.7667Z"
        fill="white" />
</svg>