<svg width="20" height="20" viewBox="0 0 20 20" fill="none" xmlns="http://www.w3.org/2000/svg">
<path d="M16.6667 15.625H3.33335C3.22415 15.6247 3.11688 15.5961 3.02197 15.5421C2.92706 15.4881 2.84773 15.4104 2.79169 15.3167C2.73841 15.2211 2.71045 15.1136 2.71045 15.0042C2.71045 14.8948 2.73841 14.7872 2.79169 14.6917L9.45835 3.02501C9.51765 2.93563 9.59814 2.8623 9.69265 2.81158C9.78716 2.76086 9.89276 2.73431 10 2.73431C10.1073 2.73431 10.2129 2.76086 10.3074 2.81158C10.4019 2.8623 10.4824 2.93563 10.5417 3.02501L17.2084 14.6917C17.2616 14.7872 17.2896 14.8948 17.2896 15.0042C17.2896 15.1136 17.2616 15.2211 17.2084 15.3167C17.1523 15.4104 17.073 15.4881 16.9781 15.5421C16.8832 15.5961 16.7759 15.6247 16.6667 15.625ZM4.40835 14.375H15.5917L10 4.59168L4.40835 14.375Z" fill="white"/>
<path d="M10 11.0417C9.83491 11.0395 9.67719 10.973 9.56045 10.8562C9.4437 10.7395 9.37716 10.5818 9.375 10.4167V7.5C9.375 7.33424 9.44085 7.17527 9.55806 7.05806C9.67527 6.94085 9.83424 6.875 10 6.875C10.1658 6.875 10.3247 6.94085 10.4419 7.05806C10.5592 7.17527 10.625 7.33424 10.625 7.5V10.4167C10.6228 10.5818 10.5563 10.7395 10.4396 10.8562C10.3228 10.973 10.1651 11.0395 10 11.0417Z" fill="white"/>
<path d="M10 13.5417C9.83491 13.5395 9.67719 13.473 9.56045 13.3562C9.4437 13.2395 9.37716 13.0818 9.375 12.9167V12.5C9.375 12.3342 9.44085 12.1753 9.55806 12.0581C9.67527 11.9408 9.83424 11.875 10 11.875C10.1658 11.875 10.3247 11.9408 10.4419 12.0581C10.5592 12.1753 10.625 12.3342 10.625 12.5V12.9167C10.6228 13.0818 10.5563 13.2395 10.4396 13.3562C10.3228 13.473 10.1651 13.5395 10 13.5417Z" fill="white"/>
</svg>
